<svg xmlns="http://www.w3.org/2000/svg" viewBox="0 0 64 64">
  <defs>
    <linearGradient id="bg" x1="0" y1="0" x2="1" y2="1">
      <stop offset="0%" stop-color="#4f2f1d" />
      <stop offset="100%" stop-color="#24140c" />
    </linearGradient>
    <linearGradient id="ingotFront" x1="0" y1="0" x2="1" y2="1">
      <stop offset="0%" stop-color="#f0bc7a" />
      <stop offset="100%" stop-color="#b06028" />
    </linearGradient>
    <linearGradient id="ingotLeft" x1="0" y1="0" x2="1" y2="1">
      <stop offset="0%" stop-color="#d78c4c" />
      <stop offset="100%" stop-color="#8b441c" />
    </linearGradient>
    <linearGradient id="ingotRight" x1="0" y1="0" x2="1" y2="1">
      <stop offset="0%" stop-color="#f0cf90" />
      <stop offset="100%" stop-color="#c97b38" />
    </linearGradient>
  </defs>

  <rect width="64" height="64" rx="14" fill="url(#bg)" />
  <circle cx="22" cy="20" r="5.5" fill="#d6823a" />
  <circle cx="42" cy="20" r="5.5" fill="#9ca8b5" />
  <path
    d="M28 20h8"
    stroke="#f6d2a0"
    stroke-linecap="round"
    stroke-width="3"
  />

  <path d="M14 30 24 25h16l10 5-10 5H24Z" fill="#e6c792" />
  <path d="M14 30v13l10 5V35Z" fill="url(#ingotLeft)" />
  <path d="M50 30v13l-10 5V35Z" fill="url(#ingotRight)" />
  <path d="M24 35h16v13H24Z" fill="url(#ingotFront)" />
  <path
    d="M24 25h8v10h-8Zm8 0h8v10h-8Z"
    fill="#000"
    opacity=".12"
  />
  <path
    d="M18 49h28"
    stroke="#f3c784"
    stroke-linecap="round"
    stroke-width="4"
  />
</svg>
